<svg xmlns="http://www.w3.org/2000/svg" viewBox="0 0 376.23 314.34"><title>Asset 10</title><g id="Layer_2" data-name="Layer 2"><g id="Layer_1-2" data-name="Layer 1"><path d="M0,96c8.12-7.69,23.66-24.13,31.67-31.29C88.7,13.72,154.58-9.36,231,3.5c35,5.89,66.06,22,90.24,47.71,30.95,32.92,53.65,70.91,54.92,118,1.07,39.55-10.07,75.06-37.77,104.26-13.92,14.68-31.53,23.67-49.72,32.14-16.7,7.78-33.34,10.63-51.42,7.4-39.81-7.12-69.45-40.42-72.64-80.87-.13-1.69-.2-3.43-.23-3.87-.07-1.3,0-1.29-.08-2.08-.09-1.26-.11-1.84-.16-2.44a.6.6,0,0,0-.22-.38c-1.4-1-2.8-2.3-5-3.8C110,181.48,61.15,143.54,12.44,105.28a98.08,98.08,0,0,0-9-6.53M14,88.56l.77,1.88L336,88.4c-2.38-3.85-3.48-6-4.92-7.89C292,29.33,238.57,8,175.92,9.82c-54.16,1.6-101,23.86-141.8,58.92C27,74.85,20.67,81.91,14,88.56ZM165.21,216c2.95-10,6.36-18.55,11.69-25.76,10.56-15.22,32.27-27.13,52.66-22.88a29.66,29.66,0,0,1,3.76,1.31s5.08-3.51,6.92-4.84c28.15-20.48,56.06-41.29,84-62.06,1.63-1.21,4.81-3.21,6.25-4.68-103.77,1.69-208.82-3.64-312.29,4C66.65,139,116.73,178,165.21,216Zm108.94,82.89a48.67,48.67,0,0,0,9.06-3.41c19-7.86,35.23-19.57,47.41-36.15,34.53-47,38.19-97.58,16.39-150.78-.76-1.88-3.76-6.4-4.87-8.17-.85,2-2.06,6.46-2.71,8.35q-31.2,90.41-62.19,180.88C276.55,291.57,275.53,294.81,274.15,298.85Zm60.76-198.3a66.09,66.09,0,0,0-7.53,4.27c-28.05,20.15-56.32,40.39-83.95,60.68-2,1.68-4.27,3.51-5.05,4.24-.09.07-.61.44-.61.54s3.24,2.34,5.57,4.33c14.32,12.28,19.39,29.64,9.71,44.66-3,4.57-3.13,8.53-1.69,13.31,5.15,17.08,10.12,34.22,15.26,51.31.55,1.84.93,3.87,1.39,6.1l1.36,6.61s.44-1.51,2.31-7.36ZM176.61,222.47c-2.29-.07-3.07-.13-3.9-.15-.35,0,1.25,1,3.17,2.44l87.76,67.94c-1.9-6.83-1.39-5.37-3.24-12.43-2.69-10.24-4.11-14-6.09-20.44-2.28-7.36-3.4-10.85-5.59-18.21-1.66-5.6-3.18-11-3.79-12.39a.58.58,0,0,0-.73-.33c-.84.27-2.87,1.75-4.45,2.27-6.52,2.54-13.32,2.77-18.48-2.19-4.71-4.53-9.77-5.71-15.86-5.72C195.81,223.23,186.21,222.75,176.61,222.47Zm-7.51,5.46c.09,17.9,11.05,43.48,28.39,56.35,18.24,13.53,52.52,21.42,65.44,17.29C233.28,278.59,199.12,251.19,169.1,227.93Zm41.93-10c1.53-4.52,2.89-7.36,4.51-11.77,2.74-6.46,5.11-12.65,8-19.24,1.64-4,3.36-7.7,4-9.33-1.52,1.05-7,5.32-8.23,6.18Q199.48,197.84,180,212.22c-1.31,1-2.39,1.91-3.87,3.16a23.59,23.59,0,0,0-2.71,2.38s1.78,0,3.7-.06C188.58,217.85,200.11,217.8,211,217.94Zm-39.64-8.83a45.21,45.21,0,0,0-1.52,6.09s2.33-1.71,4.82-3.81c16.38-12.42,36.46-26.62,53.63-39.18a16.36,16.36,0,0,0,1.58-1l-1.72-.42C207.13,165.38,177.71,183.67,171.39,209.11ZM246.88,217a21.89,21.89,0,0,0,3.47-25.86,54.21,54.21,0,0,0-11.6-14.92,15.9,15.9,0,0,0-4.45-2.85,15.8,15.8,0,0,0,.77,2.89C238.81,189.19,243.24,204.41,246.88,217ZM241,211.27c-2.37-8.19-4.54-16.1-7.1-23.87-.13-.37-2.23-8.61-2.23-8.61a45.62,45.62,0,0,0-4.38,8C222.18,199,227.51,209.62,241,211.27Zm-5.47,7.08c2-.06,4.91-.31,4.91-.31s-1.92-1.38-4.1-2.66a54,54,0,0,1-7.16-4.67c-2-1.52-6-5.76-6.92-9.25-1.28,3.19-5,12.61-6.74,17C222.79,218.42,230.27,218.39,235.48,218.35Zm2.64,8.85,4.55-2.68-4.29-.47-13.23-.73-3.7-.32,3.52,3.26a11.91,11.91,0,0,0,6,2.08A13.19,13.19,0,0,0,238.12,227.2Z"/></g></g></svg>