<svg xmlns="http://www.w3.org/2000/svg" viewBox="0 0 738.7 351.79"><title>Asset 9</title><g id="Layer_2" data-name="Layer 2"><g id="Layer_1-2" data-name="Layer 1"><path d="M424,62.36c5.27-5,15.37-15.68,20.57-20.33C481.61,8.92,524.4-6.08,574.05,2.27c22.74,3.83,42.91,14.28,58.61,31,20.11,21.39,34.85,46.07,35.68,76.67.69,25.69-6.55,48.76-24.54,67.73-9,9.53-20.48,15.37-32.3,20.87-10.85,5.06-21.66,6.91-33.39,4.81a57.7,57.7,0,0,1-47.19-52.54c-.09-1.09-.13-2.22-.15-2.51,0-.84,0-.83,0-1.35-.06-.81-.07-1.19-.11-1.59a.4.4,0,0,0-.14-.24c-.91-.65-1.82-1.49-3.28-2.47-31.72-24.76-63.48-49.4-95.12-74.25a60.91,60.91,0,0,0-5.86-4.24m6.88-6.62.5,1.21,208.66-1.32c-1.55-2.5-2.26-3.89-3.2-5.12C613.64,19.05,579,5.17,538.27,6.38c-35.19,1-65.6,15.5-92.12,38.27C441.52,48.62,437.42,53.21,433.09,57.53Zm98.22,82.76c1.91-6.47,4.13-12.06,7.59-16.74,6.86-9.89,21-17.62,34.21-14.86a18.79,18.79,0,0,1,2.44.85s3.3-2.28,4.49-3.15c18.29-13.3,36.42-26.82,54.57-40.31a41.26,41.26,0,0,0,4.06-3c-67.41,1.1-135.64-2.36-202.86,2.59C467.28,90.26,499.82,115.64,531.31,140.29Zm70.77,53.84a32.12,32.12,0,0,0,5.88-2.22c12.33-5.11,22.88-12.71,30.79-23.48,22.43-30.53,24.81-63.38,10.65-97.94a54.67,54.67,0,0,0-3.17-5.31c-.54,1.33-1.33,4.2-1.76,5.42q-20.25,58.72-40.39,117.5C603.63,189.4,603,191.5,602.08,194.13ZM641.54,65.32a40.56,40.56,0,0,0-4.89,2.77c-18.22,13.09-36.59,26.23-54.53,39.42-1.32,1.09-2.78,2.28-3.28,2.75-.06,0-.4.28-.4.35s2.1,1.52,3.62,2.81c9.3,8,12.59,19.26,6.31,29a9.41,9.41,0,0,0-1.1,8.65c3.34,11.1,6.57,22.23,9.91,33.33.36,1.2.6,2.51.9,4,.51,2.5.89,4.3.89,4.3s.28-1,1.5-4.78ZM538.71,144.51c-1.49,0-2-.09-2.53-.09-.23,0,.81.66,2.06,1.58l57,44.13c-1.23-4.43-.9-3.49-2.1-8.07-1.74-6.66-2.67-9.11-4-13.28-1.47-4.78-2.2-7.05-3.62-11.83-1.09-3.64-2.07-7.11-2.47-8a.37.37,0,0,0-.47-.21c-.55.17-1.87,1.14-2.89,1.47-4.24,1.65-8.66,1.8-12-1.42-3.06-2.94-6.34-3.71-10.3-3.72C551.18,145,545,144.7,538.71,144.51Zm-4.87,3.55c0,11.62,7.17,28.24,18.44,36.6,11.84,8.79,34.11,13.91,42.5,11.23C575.52,181,553.33,163.17,533.84,148.06Zm27.23-6.49c1-2.94,1.88-4.78,2.93-7.65,1.78-4.19,3.32-8.21,5.2-12.5,1.06-2.6,2.18-5,2.6-6-1,.67-4.55,3.45-5.34,4q-12.9,9.12-25.57,18.47c-.85.63-1.56,1.24-2.51,2.06a14.87,14.87,0,0,0-1.76,1.54s1.15,0,2.4,0C546.49,141.51,554,141.48,561.07,141.57Zm-25.75-5.74a29.7,29.7,0,0,0-1,4s1.52-1.11,3.14-2.47c10.63-8.07,23.68-17.3,34.83-25.46a8.85,8.85,0,0,0,1-.64l-1.12-.27C558.53,107.43,539.42,119.31,535.32,135.83Zm49,5.13a14.23,14.23,0,0,0,2.25-16.8,35.26,35.26,0,0,0-7.53-9.69,10.45,10.45,0,0,0-2.89-1.85,10.35,10.35,0,0,0,.5,1.88Zm-3.86-3.73c-1.53-5.31-2.94-10.45-4.61-15.5-.08-.24-1.44-5.59-1.44-5.59a29.41,29.41,0,0,0-2.85,5.22C568.32,129.28,571.77,136.16,580.5,137.23Zm-3.55,4.6c1.29,0,3.19-.2,3.19-.2s-1.24-.89-2.66-1.72a35.29,35.29,0,0,1-4.65-3c-1.31-1-3.92-3.74-4.5-6-.83,2.06-3.23,8.19-4.38,11Zm1.72,5.75,3-1.74-2.78-.3-8.6-.47-2.4-.22,2.28,2.12a7.72,7.72,0,0,0,3.88,1.35A8.52,8.52,0,0,0,578.67,147.58Z"/><path d="M208,62.94H165.13l.67-3.32h89l-.66,3.32H211.31L186.89,177.55h-3.32Z"/><path d="M250.67,91.34H254l-4.65,22.26A53.45,53.45,0,0,1,265,97.9a40,40,0,0,1,17.77-6.39,8.09,8.09,0,0,1,1.57-.17h1.58l-.66,3.33a38.62,38.62,0,0,0-21.84,8q-10,7.47-16,20.43l-11.63,54.48H232.4Z"/><path d="M303.32,91.34h3.32l-18.27,86.21h-3.32Zm7.48-35h3.32l-2.66,12.79h-3.32Z"/><path d="M333.71,91.34h3.16l-3.82,18.27a56,56,0,0,1,7.81-7.89,60.9,60.9,0,0,1,9.05-6.22,44.68,44.68,0,0,1,9.72-4.07A35.3,35.3,0,0,1,369.26,90a27.15,27.15,0,0,1,13,3.07,30.16,30.16,0,0,1,9.71,8.22,37.22,37.22,0,0,1,6.07,11.79,45.53,45.53,0,0,1,2.07,13.62,50.32,50.32,0,0,1-3.82,19.18,57,57,0,0,1-10.46,16.78,54.18,54.18,0,0,1-15.45,12,40.23,40.23,0,0,1-18.77,4.57,27.12,27.12,0,0,1-10-1.75,30.85,30.85,0,0,1-8.14-4.65,30.31,30.31,0,0,1-6.31-6.81,39.87,39.87,0,0,1-4.32-8.22l-11.79,55.14H307.8Zm18.61,84.55a35.7,35.7,0,0,0,17.27-4.41,50.29,50.29,0,0,0,14.2-11.37,54.71,54.71,0,0,0,9.55-15.7,46.36,46.36,0,0,0,3.49-17.36,41.22,41.22,0,0,0-2-12.79,33.68,33.68,0,0,0-5.73-10.79,28,28,0,0,0-9-7.39,24.82,24.82,0,0,0-11.71-2.74,31.44,31.44,0,0,0-10.71,2.16,53.87,53.87,0,0,0-11.38,5.81,49.42,49.42,0,0,0-9.72,8.47,26.31,26.31,0,0,0-5.73,10l-6.64,31.06a37,37,0,0,0,3.65,9.88,31,31,0,0,0,6.06,7.89,28.38,28.38,0,0,0,8.23,5.31A25.37,25.37,0,0,0,352.32,175.89Z"/><path d="M120,177a74.42,74.42,0,0,0,1.17-17.25c-.39-4.11-3.92-5.09-8.23-1.76-7.25,5.49-21.94,20.38-31,30.17-5.29,5.88-10.58,11.76-15.48,18-2,2.55-3.72,4.9-5.48,7.45a124.32,124.32,0,0,0-12.93,24.88c-2.94,7.45-5.69,14.7-8.63,22a194.54,194.54,0,0,1-9.21,19.4,35.7,35.7,0,0,1-6.07,8.22c-2.55,2.55-5.49,3.92-8.42,2.94-3.73-1.37-3.34-6.46-1.38-10.19,2.94-5.87,5.49-11.56,8.43-17.24,6.27-13.32,12.34-28.21,15.87-41.14a58.87,58.87,0,0,0,2-15.88c-.2-11.56-1.76-23.31-7.25-30.17A12.2,12.2,0,0,0,24,172.12a12.82,12.82,0,0,0-6.85,2.15c-3.92,2.55-8,5.69-12,8.62-1.95,1-3.91,1.37-4.89-.58s1-5.1,2.15-6.08a100.56,100.56,0,0,1,13.13-9.8c4.9-3.13,9.21-4.5,14.5-4.31,11.56,0,18.22,13.33,20,22.73.78,4.51,1.56,9,2.54,13.52.79,3.92,2.55,5.1,5.68,1.57,8.23-9,19.4-21,29-30.57a300.69,300.69,0,0,1,29.59-25.86c3.14-2.35,6.27-3.72,9.41-3.72,8,0,8,12.14,8,16.85a111.37,111.37,0,0,1-2.16,20.18c-3.33,19-8.23,39.19-12.73,57.21-3.53,14.11-7.25,28.81-11,42.92a208.89,208.89,0,0,0-5.29,29.58,49.82,49.82,0,0,0,1,18.62c2,8,7.45,13.13,18.42,13.13,6.08,0,12.54-1.77,18.42-4.12,8.82-3.53,17.83-8.23,27.24-13.13,1.76-1,4.5-1.37,5.48.59,1,2.15-.39,3.92-2.35,5.29-10,7.25-19.79,13.72-31.74,19.4-7.05,3.33-14.3,5.48-22,5.48q-10.27,0-17-6.46c-7.45-7.05-9.6-17.05-9.6-28.81,0-13.9,4.31-29.78,6.66-39.18C105.68,244.42,114.5,208.56,120,177Z"/><path d="M245,264.8c2.35-1,4.31-.59,5.1,1.56.58,1.38-.2,3.53-1.57,4.71a34.73,34.73,0,0,1-5.88,3.92c-1.76,1-3.72,2-5.49,2.74a99,99,0,0,1-11.36,4.7c-6.86,2.35-13.72,4.51-19.79,5.1-7.06.78-11.17.78-17.44-3.34-2.35-1.56-3.72-2.74-6.27-4.5-3.92,2-8,4.11-12.15,6.07-4.31,2-8.42,3.73-12.93,5.29-5.49,2-10.78,1.38-15.28-2.54-2.94-2.55-4.31-10.19-1.57-15.29,6.07-10.77,14.5-25.27,20.77-35.85,1.57-2.55,4.11-3.73,6.27-3.14a3.91,3.91,0,0,1,3.13,3.92,23,23,0,0,1-1.76,7.44c-2.74,6.47-7,16.07-10.19,23.13-1,2.93-.59,6.27,3.53,6.27a12.55,12.55,0,0,0,6.46-2c6.86-4.12,13.52-9,18-15.68,3.13-4.5,6.66-10,9.8-14.3,1.56-2.16,3.52-4.12,5.48-4.9a7.33,7.33,0,0,1,6.47.39,5.18,5.18,0,0,1,2.35,5.49,14.47,14.47,0,0,1-1.57,4.31l-5.87,11.76c-4.71,9.4-4.9,14.89,5.48,14.89,7.64,0,18.42-3.34,25.67-5.88C238.32,267.74,241.45,266.17,245,264.8Z"/><path d="M365.47,286.15c-8.81,0-17.24-4.11-22.14-10.38-1.76-2.35-4.31-5.88-5.87-8.42a4.07,4.07,0,0,0-5.88-1.38,112.69,112.69,0,0,1-14.11,8c-4.31,2.16-9.6,4.51-14.3,4.51-6.86,0-10-6.27-12.74-11.16a3.86,3.86,0,0,0-5.68-.59c-7.45,6.66-15.09,13.52-22.93,20.18-2.94,2.74-7.64,5.29-11.56,5.29-4.7-.2-8.62-4.7-8.62-9.8A45.5,45.5,0,0,1,243,270.87c2.16-8.23,4.31-16.26,7.25-24.69a39.68,39.68,0,0,1,3.92-8.23c1.18-2,2.74-3.33,5.49-3.13,1.56,0,2.94,2.15,2.15,5.29-1.76,7-4.11,16.46-5.48,23.32-1.57,7.44-2,13.32.39,13.32a8.25,8.25,0,0,0,5.09-2.35c9.41-8.62,18.42-18,26.85-27.43,2.94-3.33,6.07-7.06,10-7.06,4.11,0,5.29,3.33,5.29,7.45,0,2.55,0,5.68.2,7.44,1,7.45,2.74,10.59,6.27,10.59,8,.19,19.59-9.41,25.08-14.9,1.56-1.57,2.74-2.93,4.11-4.5,3.14-3.73,5.29-6.86,9.6-6.67,3.14.2,4.12,3.92,3.72,6.47a47.53,47.53,0,0,0-1.17,9.8,18.14,18.14,0,0,0,4.9,13.13,14.41,14.41,0,0,0,10.58,5.09c8.23,0,17.44-2.94,24.3-6.86a35.53,35.53,0,0,1,4.7-2.35c2.35-1,4.31-.39,5.09,1.76.59,1.38-.19,3.53-1.57,4.71-1.17,1-2.35,2-3.72,2.93C387.22,280.28,376.45,286.15,365.47,286.15Z"/><path d="M433.06,291.44a16.21,16.21,0,0,1-11.37-.39c-8.81-3.72-9-3.52-14.3,4.51-2.15,3.13-3.92,6.07-7.84,7.84a6.62,6.62,0,0,1-4.31-.2c-4.7-2.15-5.48-6.86-5.09-11.36a119.86,119.86,0,0,1,3.33-17c6.07-21.75,12.34-43.89,19.59-65.25,7.45-21.36,15.87-42.32,25.28-63.09,5.88-12.93,8.62-17.64,16.65-27.82,1.38-2,3.73-3.92,6.08-2.16,1.57,1.18,1.17,3.33.19,4.9A141.69,141.69,0,0,0,451.48,138c-10,19.4-17.25,40-25.08,60.35-2.94,7.65-5.49,14.7-7.64,22.14a284.12,284.12,0,0,0-7.65,31.55c-.58,3.14.79,3.72,3.33,1.18,5.49-5.49,9.21-9,15.29-14.31,6.66-6.07,16.65-11.75,24.49-11.75a11.13,11.13,0,0,1,7.64,2.94c4.9,4.5,6.08,9.79,5.68,16.65a50,50,0,0,1-2.35,12.74c-2.74,8-7.64,14.3-13.32,19.79S439.72,289.49,433.06,291.44Zm5.88-21.55c4.31.39,8-1,10.38-4.11,4.9-7.06,8.82-14.5,7.25-23.71a5,5,0,0,0-4.7-4.31,10.33,10.33,0,0,0-6.86,2.55c-7.64,5.28-14.3,12.14-20.57,23.31A22.67,22.67,0,0,0,438.94,269.89Z"/><path d="M507.31,225a10.88,10.88,0,0,1,7.45,2.94c6.66,6.66,6.85,11.17,2.74,18.61a45.49,45.49,0,0,1-13.91,15.29A68.85,68.85,0,0,1,493,268.13c2.15,6.66,11.56,8,20.18,8a89.1,89.1,0,0,0,17.24-2A151.08,151.08,0,0,0,553,267.15a48.51,48.51,0,0,0,5.3-2.35c2.35-1,4.31-.59,5.09,1.56.59,1.38-.2,3.53-1.57,4.71a33.79,33.79,0,0,1-6.46,4.7,117.32,117.32,0,0,1-22.93,9.8c-9.21,2.54-19.2,4.51-28.61,4.51-7.83,0-15.28-1.77-20.77-5.49-6.66-4.7-9.4-12.54-9.4-20A39.56,39.56,0,0,1,485,237.37C490.07,232.47,499.28,225,507.31,225Zm-18,24.1a16.15,16.15,0,0,0-1.17,8,23.06,23.06,0,0,0,6.47-2.75,34.13,34.13,0,0,0,7.05-5.49,18.77,18.77,0,0,0,4.51-6.85c1.17-3.53-2.75-4.51-5.1-3.53C495,240.89,491.83,244,489.28,249.12Z"/><path d="M569.42,226.59c-1.38-3.33-.2-6.27,2.35-8.43a31.63,31.63,0,0,1,7.64-4.9c2.55-1.17,4.51,0,6.47,1.57a28.39,28.39,0,0,1,4.31,5.29c1.56,2.36,3.13,5.88,5.68,7.06C608,233.45,608.8,244,606.64,255.39c-1,6.07-3.52,12-1.95,18.42.78,3.33,4.31,4.7,7.44,4.7,3.92,0,7.25-1,10.78-2a180.86,180.86,0,0,0,22.34-8c3.72-1.57,6.07-2.74,8.42-3.72s4.31-.59,5.1,1.56c.58,1.38-.2,3.53-1.57,4.71a34.73,34.73,0,0,1-5.88,3.92c-6.86,3.72-12.93,6.85-20,10.19a62.5,62.5,0,0,1-27.62,6.26c-4.71,0-8-1.17-10.58-3.72A15,15,0,0,1,589,277.34c0-7.64,2.16-15.29,3.53-21.75a24.12,24.12,0,0,0,.19-9.21,8.35,8.35,0,0,0-6.07-5.88,6.13,6.13,0,0,0-6.07,2.35c-4.51,7.06-5.3,8.43-9.41,15.68-5.88,10.19-7.64,13.32-12.74,23.51-2.94,5.88-3.52,7.25-6.27,13.72-1.17,2.74-2.15,5.68-3.33,8.62-.78,1.76-4.11,3.13-6.07,2.35a5.63,5.63,0,0,1-3.33-5.29c.39-2.94,2-6.47,3.33-9.21,4.9-10.39,7.84-15.68,12.73-24.88,3.73-7.06,5.1-9.41,8.63-15.29,3.72-6.07,5.09-8.42,9.6-15.48C572.55,233.64,571,230.12,569.42,226.59Z"/><path d="M714.4,282c-4.31,2.15-8.62,4.11-13.52,6.27-8.62,3.72-17.44,7.05-26.45,10.38s-19.59,1.18-25.67-6.26c-5.09-6.08-4.7-12.54-2.94-19.21a14.86,14.86,0,0,1,5.1-7.83c13.71-11.76,26.45-22.93,39.58-33.9,2.74-2.16,5.29-4.31,7.84-6.66,2.74-2.35,6.46-2,7.83-.2,1.77,2.15,1.57,4.11.79,6.27-2.55,7.45-5.29,14.5-7.84,22.14a29.74,29.74,0,0,0-1.57,14.31c.59,3.72,4.51,3.91,8.43,3.52,7.25-.78,14.89-3.33,21.16-5.68,2.55-1,4.51-2,6.27-2.74,2.35-1,4.31-.59,5.09,1.56.59,1.38-.19,3.53-1.56,4.71a69.32,69.32,0,0,1-6.27,4.31A157.21,157.21,0,0,1,714.4,282Zm-39.18-3.14a35.58,35.58,0,0,0,7.64-24.1c0-2-1.57-2.54-3.33-1.76-7.65,3.53-13.52,8.42-17.64,15.09a17.42,17.42,0,0,0-1.57,5.87c-.39,4.9,3.92,9.22,9.8,8.24A9.79,9.79,0,0,0,675.22,278.9Z"/><path d="M472.87,183.16a9.45,9.45,0,0,1-3.09-.49,8.48,8.48,0,0,1-2.51-1.33,9.39,9.39,0,0,1-1.89-1.94,10.36,10.36,0,0,1-1.25-2.27L463,182.64h-1l7.92-37.3h1l-3.57,17a26.84,26.84,0,0,1,5.47-4.75,11.17,11.17,0,0,1,6.13-1.84,8.18,8.18,0,0,1,4.06,1,9.23,9.23,0,0,1,2.86,2.51,10.48,10.48,0,0,1,1.71,3.5,14.15,14.15,0,0,1,.57,4,15,15,0,0,1-1.33,6.18,19.31,19.31,0,0,1-3.48,5.27,17.38,17.38,0,0,1-4.88,3.68A12.17,12.17,0,0,1,472.87,183.16Zm.1-1a11.08,11.08,0,0,0,5.24-1.33,16.42,16.42,0,0,0,4.5-3.49,17.74,17.74,0,0,0,3.14-4.94A14.39,14.39,0,0,0,487,166.7a12.21,12.21,0,0,0-.56-3.7,10,10,0,0,0-1.63-3.2,8.29,8.29,0,0,0-2.66-2.22,7.66,7.66,0,0,0-3.63-.85,9.47,9.47,0,0,0-3.32.59,13.25,13.25,0,0,0-3,1.59,21.57,21.57,0,0,0-2.76,2.3q-1.32,1.31-2.55,2.73l-2.35,11.5a7.61,7.61,0,0,0,2.91,4.91A8.88,8.88,0,0,0,473,182.13Z"/><path d="M487.84,193.22a11.51,11.51,0,0,0,2.63-.81,7.55,7.55,0,0,0,2-1.36,12.75,12.75,0,0,0,1.82-2.12c.59-.85,1.28-1.87,2.07-3.07l2.09-3.22-6.08-26.52h1.12l5.73,25.25,3-4.7c1.6-2.56,3-4.77,4.06-6.65s2.05-3.58,2.82-5.13,1.41-3,1.94-4.4,1-2.84,1.45-4.37h1.08c-.48,1.64-1,3.16-1.48,4.58a43.17,43.17,0,0,1-2,4.47q-1.17,2.36-2.88,5.26T503,177.38L498.78,184q-1.84,2.86-3.15,4.73a18.13,18.13,0,0,1-2.5,3,9.2,9.2,0,0,1-2.4,1.63,11.07,11.07,0,0,1-2.79.79Z"/></g></g></svg>